<?xml version="1.0" encoding="UTF-8"?>
<svg id="Layer_22" data-name="Layer 22" xmlns="http://www.w3.org/2000/svg" viewBox="0 0 64 64">
  <polygon points="34.09 17.83 34.09 27.18 38.76 22.5 34.09 17.83" fill="#fff"/>
  <polygon points="34.09 46.17 38.8 41.46 34.09 36.75 34.09 46.17" fill="#fff"/>
  <path d="M38.7,6.09h-13.4c-6.6,0-12,5.4-12,12v27.83c0,6.6,5.4,12,12,12h13.4c6.6,0,12-5.4,12-12v-27.83c0-6.6-5.4-12-12-12ZM43.04,42.87l-9.54,9.54s0,0-.01.01c-.09.09-.19.17-.29.24-.05.03-.11.06-.16.09-.06.03-.12.07-.18.1-.07.03-.15.05-.22.07-.05.01-.1.04-.15.05-.26.05-.53.05-.79,0-.05,0-.09-.03-.14-.04-.08-.02-.16-.04-.23-.07-.06-.02-.11-.06-.16-.09-.06-.03-.12-.06-.18-.1-.08-.06-.16-.12-.24-.19-.02-.02-.05-.03-.07-.05-.02-.02-.03-.05-.05-.07-.07-.08-.14-.15-.19-.24-.04-.06-.07-.12-.1-.18-.03-.05-.06-.11-.09-.16-.03-.07-.05-.15-.07-.23-.01-.05-.03-.09-.04-.14-.03-.13-.04-.26-.04-.4v-14.17l-6.3,6.3c-.78.78-2.05.78-2.83,0-.78-.78-.78-2.05,0-2.83l8.34-8.34-8.34-8.34c-.78-.78-.78-2.05,0-2.83.78-.78,2.05-.78,2.83,0l6.3,6.3v-14.09h0c0-.13.01-.27.04-.4,0-.03.02-.06.02-.08.02-.1.05-.2.09-.29.01-.02.03-.05.04-.07.1-.21.22-.4.39-.57.59-.59,1.46-.73,2.19-.43,0,0,0,0,0,0,.23.1.44.24.63.42l9.5,9.5c.1.1.18.2.26.32.51.78.43,1.83-.25,2.52l-8.05,8.05,8.08,8.08s0,0,0,0c0,0,0,0,0,0,.78.78.78,2.05,0,2.83Z" fill="#fff"/>
</svg>