<?xml version="1.0" encoding="UTF-8"?>
<svg id="Layer_2" data-name="Layer 2" xmlns="http://www.w3.org/2000/svg" viewBox="0 0 680 512">
  <g id="Confirm">
    <g id="Layer_1-2" data-name="Layer 1">
      <g>
        <rect x="2.5" y="2.5" width="675" height="507" rx="9.5" ry="9.5" fill="#e6e7e8"/>
        <path d="M668,5c3.86,0,7,3.14,7,7v488c0,3.86-3.14,7-7,7H12c-3.86,0-7-3.14-7-7V12c0-3.86,3.14-7,7-7h656M668,0H12C5.373,0,0,5.373,0,12v488c0,6.627,5.373,12,12,12h656c6.627,0,12-5.373,12-12V12c0-6.627-5.373-12-12-12h0Z" fill="#bcbec0"/>
        <path d="M668,1c6.065,0,11,4.935,11,11v488c0,6.065-4.935,11-11,11H12c-6.065,0-11-4.935-11-11V12C1,5.935,5.935,1,12,1h656M668,0H12C5.373,0,0,5.373,0,12v488c0,6.627,5.373,12,12,12h656c6.627,0,12-5.373,12-12V12c0-6.627-5.373-12-12-12h0Z" fill="#6d6e71"/>
      </g>
    </g>
  </g>
</svg>