<?xml version="1.0" encoding="UTF-8"?>
<svg id="Layer_2" data-name="Layer 2" xmlns="http://www.w3.org/2000/svg" viewBox="0 0 30.37 46.74">
  <g id="Icons">
    <g id="Layer_17_copy" data-name="Layer 17 copy">
      <g>
        <path d="M15.55,32.53h-5.13v-6.11c0-1.22.49-2.24,1.47-3.05l1.46-1.22c.98-.81,1.95-1.22,2.93-1.22h3.97c.73,0,1.2-.03,1.4-.09.2-.06.49-.23.85-.52.37-.28.58-.52.64-.7.06-.18.09-.58.09-1.19v-9.65c0-.61-.03-1.01-.09-1.19-.06-.18-.27-.42-.64-.7-.37-.28-.65-.46-.85-.52-.2-.06-.67-.09-1.4-.09h-10.13c-.73,0-1.2.03-1.4.09-.2.06-.49.24-.85.52-.37.29-.58.52-.64.7-.06.18-.09.58-.09,1.19v1.16H2v-2.44c0-1.22.49-2.24,1.46-3.05l1.47-1.22c.98-.81,1.95-1.22,2.93-1.22h14.65c.98,0,1.95.41,2.93,1.22l1.47,1.22c.98.81,1.46,1.83,1.46,3.05v12.64c0,.94-.45,1.77-1.34,2.5l-1.59,1.34c-.98.81-1.95,1.22-2.93,1.22h-3.97c-.73,0-1.2.03-1.4.09-.2.06-.49.24-.85.52-.37.29-.58.52-.64.7-.06.18-.09.58-.09,1.19v4.82ZM15.55,42.54v-1.4c0-.85-.16-1.44-.49-1.77-.33-.28-.98-.43-1.95-.43h-.24c-.98,0-1.61.14-1.89.43-.29.24-.45.45-.49.61-.04.16-.06.55-.06,1.16v1.4c0,.85.16,1.45.49,1.77.33.29.98.43,1.95.43h.31c.94,0,1.55-.14,1.83-.43.28-.24.45-.45.49-.61.04-.16.06-.55.06-1.16Z" fill="#fff"/>
        <path d="M15.55,32.53h-5.13v-6.11c0-1.22.49-2.24,1.47-3.05l1.46-1.22c.98-.81,1.95-1.22,2.93-1.22h3.97c.73,0,1.2-.03,1.4-.09.2-.06.49-.23.85-.52.37-.28.58-.52.64-.7.06-.18.09-.58.09-1.19v-9.65c0-.61-.03-1.01-.09-1.19-.06-.18-.27-.42-.64-.7-.37-.28-.65-.46-.85-.52-.2-.06-.67-.09-1.4-.09h-10.13c-.73,0-1.2.03-1.4.09-.2.06-.49.24-.85.52-.37.29-.58.52-.64.7-.06.18-.09.58-.09,1.19v1.16H2v-2.44c0-1.22.49-2.24,1.46-3.05l1.47-1.22c.98-.81,1.95-1.22,2.93-1.22h14.65c.98,0,1.95.41,2.93,1.22l1.47,1.22c.98.81,1.46,1.83,1.46,3.05v12.64c0,.94-.45,1.77-1.34,2.5l-1.59,1.34c-.98.81-1.95,1.22-2.93,1.22h-3.97c-.73,0-1.2.03-1.4.09-.2.06-.49.24-.85.52-.37.29-.58.52-.64.7-.06.18-.09.58-.09,1.19v4.82ZM15.55,42.54v-1.4c0-.85-.16-1.44-.49-1.77-.33-.28-.98-.43-1.95-.43h-.24c-.98,0-1.61.14-1.89.43-.29.24-.45.45-.49.61-.04.16-.06.55-.06,1.16v1.4c0,.85.16,1.45.49,1.77.33.29.98.43,1.95.43h.31c.94,0,1.55-.14,1.83-.43.28-.24.45-.45.49-.61.04-.16.06-.55.06-1.16Z" fill="none" stroke="#fff" stroke-linecap="square" stroke-miterlimit="5" stroke-width="4"/>
      </g>
    </g>
  </g>
</svg>