<?xml version="1.0" encoding="UTF-8"?>
<svg id="Layer_22" data-name="Layer 22" xmlns="http://www.w3.org/2000/svg" viewBox="0 0 64 64">
  <rect x="5.64" y="14.7" width="52.72" height="34.6" rx="3" ry="3" fill="none" stroke="#fff" stroke-miterlimit="10" stroke-width="3"/>
  <line x1="5.64" y1="22.23" x2="57.34" y2="22.23" fill="none" stroke="#fff" stroke-miterlimit="10" stroke-width="3"/>
  <line x1="6.66" y1="41.57" x2="58.36" y2="41.57" fill="none" stroke="#fff" stroke-miterlimit="10" stroke-width="3"/>
  <line x1="13.34" y1="15.43" x2="13.34" y2="22.23" fill="none" stroke="#fff" stroke-miterlimit="10" stroke-width="3"/>
  <line x1="20.8" y1="15.42" x2="20.8" y2="22.22" fill="none" stroke="#fff" stroke-miterlimit="10" stroke-width="3"/>
  <line x1="28.27" y1="15.42" x2="28.27" y2="22.22" fill="none" stroke="#fff" stroke-miterlimit="10" stroke-width="3"/>
  <line x1="35.73" y1="15.42" x2="35.73" y2="22.22" fill="none" stroke="#fff" stroke-miterlimit="10" stroke-width="3"/>
  <line x1="43.2" y1="15.43" x2="43.2" y2="22.23" fill="none" stroke="#fff" stroke-miterlimit="10" stroke-width="3"/>
  <line x1="50.66" y1="15.43" x2="50.66" y2="22.23" fill="none" stroke="#fff" stroke-miterlimit="10" stroke-width="3"/>
  <line x1="13.34" y1="41.62" x2="13.34" y2="48.42" fill="none" stroke="#fff" stroke-miterlimit="10" stroke-width="3"/>
  <line x1="20.8" y1="41.61" x2="20.8" y2="48.41" fill="none" stroke="#fff" stroke-miterlimit="10" stroke-width="3"/>
  <line x1="28.27" y1="41.61" x2="28.27" y2="48.41" fill="none" stroke="#fff" stroke-miterlimit="10" stroke-width="3"/>
  <line x1="35.73" y1="41.61" x2="35.73" y2="48.41" fill="none" stroke="#fff" stroke-miterlimit="10" stroke-width="3"/>
  <line x1="43.2" y1="41.62" x2="43.2" y2="48.42" fill="none" stroke="#fff" stroke-miterlimit="10" stroke-width="3"/>
  <line x1="50.66" y1="41.62" x2="50.66" y2="48.42" fill="none" stroke="#fff" stroke-miterlimit="10" stroke-width="3"/>
  <path d="M38.04,31.13l-10.06-5.81c-.67-.38-1.5.1-1.5.87v11.61c0,.77.83,1.25,1.5.87l10.06-5.81c.67-.38.67-1.35,0-1.73Z" fill="#fff"/>
</svg>