<?xml version="1.0" encoding="UTF-8"?>
<svg id="Icons" xmlns="http://www.w3.org/2000/svg" viewBox="0 0 64 64">
  <g id="Layer_17_copy" data-name="Layer 17 copy">
    <g>
      <path d="M25.46,36.86l-5.17-7.39c-1.27-1.81-3.76-2.25-5.57-.98l-3.28,2.29c-1.81,1.27-2.25,3.76-.98,5.57l7.82,11.17c.12-.41.29-.82.55-1.19l6.63-9.47Z" fill="#fff"/>
      <path d="M52.56,12.1l-3.28-2.29c-1.81-1.27-4.3-.83-5.57.98l-18.26,26.07,6.63,9.47c.26.37.43.78.55,1.19l20.9-29.85c1.27-1.81.83-4.3-.98-5.57Z" fill="#fff"/>
      <path d="M25.46,36.86l-6.63,9.47c-.26.37-.43.78-.55,1.19l3.99,5.69c.76,1.09,1.96,1.67,3.2,1.69,1.23-.03,2.44-.61,3.2-1.69l3.99-5.69c-.12-.41-.29-.82-.55-1.19l-6.63-9.47Z" fill="#fff"/>
    </g>
  </g>
</svg>