<?xml version="1.0" encoding="UTF-8"?>
<svg id="Layer_2" data-name="Layer 2" xmlns="http://www.w3.org/2000/svg" viewBox="0 0 192 48">
  <g id="Layer_1-2" data-name="Layer 1">
    <g>
      <rect x="2.5" y="2.5" width="187" height="43" rx="9.5" ry="9.5" fill="#fff"/>
      <path d="M180,5c3.86,0,7,3.14,7,7v24c0,3.86-3.14,7-7,7H12c-3.86,0-7-3.14-7-7V12c0-3.86,3.14-7,7-7h129.68s38.32,0,38.32,0M180,0H12C5.37,0,0,5.37,0,12v24c0,6.63,5.37,12,12,12h168c6.63,0,12-5.37,12-12V12c0-6.63-5.37-12-12-12h0Z" fill="#bcbec0"/>
      <path d="M180,1c6.07,0,11,4.93,11,11v24c0,6.07-4.93,11-11,11H12c-6.07,0-11-4.93-11-11V12c0-6.07,4.93-11,11-11h129.68s38.32,0,38.32,0M180,0H12C5.37,0,0,5.37,0,12v24c0,6.63,5.37,12,12,12h168c6.63,0,12-5.37,12-12V12c0-6.63-5.37-12-12-12h0Z" fill="#6d6e71"/>
    </g>
    <line x1="142.57" y1="48" x2="142.57" y2="0" fill="none" stroke="#6d6e71" stroke-miterlimit="10"/>
    <path d="M176.11,21.49l-15.89-10.42c-2-1.31-4.65.12-4.65,2.51v20.84c0,2.39,2.65,3.82,4.65,2.51l15.89-10.42c1.81-1.18,1.81-3.83,0-5.02Z" fill="#bcbec0"/>
    <g>
      <path d="M38.24,16.22h-4.56v15.66h-2.38v-15.66h-4.46v-1.8h11.4v1.8Z" fill="#a7a9ac"/>
      <path d="M49.75,25.27c-.94.09-1.52.15-1.75.16h-6.39c0,1.13.04,2.38.09,3.73.04.52.26.87.67,1.04s1.21.25,2.4.25c.45,0,.83-.02,1.15-.05s.58-.1.78-.19.36-.18.47-.26.2-.21.25-.39.09-.32.11-.45.03-.3.05-.55.04-.45.06-.6l1.79.33c-.02.55-.05,1.01-.12,1.39s-.17.71-.32,1-.32.52-.53.69-.48.31-.82.42-.72.18-1.14.22-.93.05-1.54.05c-.78,0-1.46-.04-2.04-.13s-1.07-.2-1.48-.33-.75-.35-1.01-.65-.47-.59-.63-.86-.26-.68-.33-1.21-.12-1.01-.13-1.45-.03-1.03-.03-1.8c0-1.08.01-1.92.04-2.52s.1-1.21.23-1.81.29-1.04.5-1.32.52-.53.94-.76.9-.38,1.46-.45,1.28-.1,2.14-.1c.6,0,1.12.02,1.56.05s.84.11,1.21.22.67.23.91.38.45.35.63.62.32.56.42.85.18.68.24,1.17.1.97.12,1.47.02,1.12.02,1.86ZM41.63,24.2h5.81c-.02-1-.05-1.91-.12-2.74-.03-.48-.24-.79-.62-.96s-1.07-.24-2.08-.24c-1.12,0-1.82.06-2.12.19-.13.04-.25.11-.35.21s-.18.24-.24.42-.11.35-.15.5-.06.37-.08.65-.03.49-.04.64-.01.38-.02.7,0,.52,0,.63Z" fill="#a7a9ac"/>
      <path d="M62.25,31.88h-2.43l-2.87-5.04-2.91,5.04h-2.4l4.05-6.62-3.96-6.23h2.41l2.8,4.79,2.81-4.79h2.38l-3.9,6.26,4.01,6.6Z" fill="#a7a9ac"/>
      <path d="M69.76,30.25l-.05,1.64c-.66.11-1.25.16-1.78.16-.57,0-1.04-.06-1.41-.19s-.65-.32-.84-.6-.32-.58-.39-.91-.11-.76-.11-1.27v-8.75h-1.75v-1.31h1.75v-3.66l2.3-.19v3.84h2.37v1.31h-2.37v7.97c0,.84.04,1.39.12,1.64s.31.38.67.38.85-.02,1.48-.07Z" fill="#a7a9ac"/>
      <path d="M87.71,31.88h-2.31v-7.8c0-.28,0-.64.02-1.07s.02-.71.02-.86c0-.39-.03-.69-.09-.9s-.19-.4-.4-.56-.51-.27-.89-.33-.91-.08-1.57-.08c-.31,0-.61.02-.88.05s-.54.09-.79.18-.45.2-.61.35-.24.32-.26.53c-.11,1.41-.16,2.67-.16,3.8v6.7h-2.32V14.46l2.32-.19v5.72c.56-.89,1.73-1.34,3.49-1.34.46,0,.88.04,1.25.09s.7.11.99.18.54.17.76.29.41.25.56.39.29.3.4.5.2.39.26.58.11.42.15.69.06.53.07.77.02.53.02.87c0,.15,0,.39,0,.72s0,.59,0,.77v7.37Z" fill="#a7a9ac"/>
      <path d="M101.36,25.27c-.94.09-1.52.15-1.75.16h-6.39c0,1.13.04,2.38.09,3.73.04.52.26.87.67,1.04s1.21.25,2.4.25c.45,0,.83-.02,1.15-.05s.58-.1.78-.19.36-.18.47-.26.2-.21.25-.39.09-.32.11-.45.03-.3.05-.55.04-.45.06-.6l1.79.33c-.02.55-.05,1.01-.12,1.39s-.17.71-.32,1-.32.52-.53.69-.48.31-.82.42-.72.18-1.14.22-.93.05-1.54.05c-.78,0-1.46-.04-2.04-.13s-1.07-.2-1.48-.33-.75-.35-1.01-.65-.47-.59-.63-.86-.26-.68-.33-1.21-.12-1.01-.13-1.45-.03-1.03-.03-1.8c0-1.08.01-1.92.04-2.52s.1-1.21.23-1.81.29-1.04.5-1.32.52-.53.94-.76.9-.38,1.46-.45,1.28-.1,2.14-.1c.6,0,1.12.02,1.56.05s.84.11,1.21.22.67.23.91.38.45.35.63.62.32.56.42.85.18.68.24,1.17.1.97.12,1.47.02,1.12.02,1.86ZM93.24,24.2h5.81c-.02-1-.05-1.91-.12-2.74-.03-.48-.24-.79-.62-.96s-1.07-.24-2.08-.24c-1.12,0-1.82.06-2.12.19-.13.04-.25.11-.35.21s-.18.24-.24.42-.11.35-.15.5-.06.37-.08.65-.03.49-.04.64-.01.38-.02.7,0,.52,0,.63Z" fill="#a7a9ac"/>
      <path d="M110.22,18.73l-.09,1.96c-.3-.04-.58-.06-.84-.06-.55,0-1,.05-1.35.16s-.6.3-.78.56-.29.57-.35.91-.09.79-.09,1.37c0,.32.01.79.04,1.41s.04,1.06.04,1.32v5.52h-2.31v-12.86h2.1l.23,1.44c.24-.56.61-1,1.1-1.31s1.08-.46,1.77-.46c.17,0,.35.01.53.04Z" fill="#a7a9ac"/>
      <path d="M122.76,25.27c-.94.09-1.52.15-1.75.16h-6.39c0,1.13.04,2.38.09,3.73.04.52.26.87.67,1.04s1.21.25,2.4.25c.45,0,.83-.02,1.15-.05s.58-.1.78-.19.36-.18.47-.26.2-.21.25-.39.09-.32.11-.45.03-.3.05-.55.04-.45.06-.6l1.79.33c-.02.55-.05,1.01-.12,1.39s-.17.71-.32,1-.32.52-.53.69-.48.31-.82.42-.72.18-1.14.22-.93.05-1.54.05c-.78,0-1.46-.04-2.04-.13s-1.07-.2-1.48-.33-.75-.35-1.01-.65-.47-.59-.63-.86-.26-.68-.33-1.21-.12-1.01-.13-1.45-.03-1.03-.03-1.8c0-1.08.01-1.92.04-2.52s.1-1.21.23-1.81.29-1.04.5-1.32.52-.53.94-.76.9-.38,1.46-.45,1.28-.1,2.14-.1c.6,0,1.12.02,1.56.05s.84.11,1.21.22.67.23.91.38.45.35.63.62.32.56.42.85.18.68.24,1.17.1.97.12,1.47.02,1.12.02,1.86ZM114.64,24.2h5.81c-.02-1-.05-1.91-.12-2.74-.03-.48-.24-.79-.62-.96s-1.07-.24-2.08-.24c-1.12,0-1.82.06-2.12.19-.13.04-.25.11-.35.21s-.18.24-.24.42-.11.35-.15.5-.06.37-.08.65-.03.49-.04.64-.01.38-.02.7,0,.52,0,.63Z" fill="#a7a9ac"/>
    </g>
  </g>
</svg>