<?xml version="1.0" encoding="UTF-8"?>
<svg id="Layer_2" data-name="Layer 2" xmlns="http://www.w3.org/2000/svg" viewBox="0 0 14 36">
  <g id="Layer_1-2" data-name="Layer 1">
    <g>
      <path d="M7,35.5c-3.58,0-6.5-2.92-6.5-6.5V7C.5,3.42,3.42.5,7,.5s6.5,2.92,6.5,6.5v22c0,3.58-2.92,6.5-6.5,6.5Z" fill="#fff"/>
      <path d="M7,1c3.31,0,6,2.69,6,6v22c0,3.31-2.69,6-6,6s-6-2.69-6-6V7C1,3.69,3.69,1,7,1M7,0C3.13,0,0,3.13,0,7v22c0,3.87,3.13,7,7,7s7-3.13,7-7V7c0-3.87-3.13-7-7-7h0Z" fill="#6d6e71"/>
    </g>
  </g>
</svg>