<?xml version="1.0" encoding="UTF-8"?>
<svg id="Layer_22" data-name="Layer 22" xmlns="http://www.w3.org/2000/svg" viewBox="0 0 64 64">
  <rect x="7.81" y="23.18" width="30.88" height="8.81" rx="4.4" ry="4.4" transform="translate(46.5 55.16) rotate(180)" fill="#fff"/>
  <rect x="8.92" y="31.74" width="30.88" height="8.81" rx="4.4" ry="4.4" transform="translate(48.72 72.28) rotate(-180)" fill="#fff"/>
  <rect x="11.5" y="39.55" width="30.88" height="8.81" rx="4.4" ry="4.4" transform="translate(53.89 87.9) rotate(-180)" fill="#fff"/>
  <rect x="14.5" y="47.28" width="26.25" height="8.81" rx="4.4" ry="4.4" transform="translate(55.25 103.37) rotate(-180)" fill="#fff"/>
  <path d="M34.07,27.58h14.39v28.51h-26.39v-16.51c0-6.62,5.38-12,12-12Z" transform="translate(70.53 83.67) rotate(180)" fill="#fff"/>
  <rect x="43.74" y="26.49" width="12.45" height="26.78" rx="3" ry="3" transform="translate(99.94 79.77) rotate(180)" fill="#fff"/>
  <path d="M47.09,31.89s-2.91-5.79-5.34-8.22c-3.02-3.02-3.61-6.83-7.03-13.24-2.67-5-7.96-1.75-7.78,2.84s.57,10.32,4.49,17.49c3.91,7.17,15.66,1.13,15.66,1.13Z" fill="#fff"/>
</svg>