<?xml version="1.0" encoding="UTF-8"?>
<svg id="Layer_22" data-name="Layer 22" xmlns="http://www.w3.org/2000/svg" viewBox="0 0 64 64">
  <path d="M50.42,33.14l5.62-2.22c-.11-1.9-.42-3.74-.94-5.49l-5.9-.16c-.62-1.58-1.45-3.05-2.45-4.38l2.77-5.1c-1.28-1.35-2.7-2.56-4.26-3.59l-4.46,3.54c-1.51-.82-3.16-1.43-4.89-1.8l-1.13-5.55c-.91-.11-1.84-.17-2.78-.17s-1.87.07-2.78.17l-1.13,5.55c-1.73.37-3.38.98-4.89,1.8l-4.46-3.54c-1.56,1.03-2.98,2.24-4.26,3.59l2.77,5.1c-1.01,1.33-1.84,2.8-2.45,4.38l-5.9.16c-.52,1.75-.83,3.59-.94,5.49l5.62,2.22c.1,1.63.4,3.2.89,4.68l-4.6,4.08c.74,1.72,1.7,3.32,2.8,4.81l5.95-1.99c1.05,1.1,2.22,2.07,3.51,2.88l-.93,6.27c1.65.83,3.4,1.47,5.23,1.9l3.34-5.45c.73.09,1.47.15,2.23.15s1.5-.06,2.23-.15l3.34,5.45c1.84-.43,3.59-1.08,5.23-1.9l-.93-6.27c1.29-.82,2.47-1.78,3.51-2.88l5.95,1.99c1.11-1.48,2.06-3.09,2.8-4.81l-4.6-4.08c.49-1.49.79-3.06.89-4.68ZM32,43.83c-6.54,0-11.83-5.3-11.83-11.83s5.3-11.83,11.83-11.83,11.83,5.3,11.83,11.83-5.3,11.83-11.83,11.83Z" fill="#fff"/>
</svg>