<?xml version="1.0" encoding="UTF-8"?>
<svg id="Layer_2" data-name="Layer 2" xmlns="http://www.w3.org/2000/svg" viewBox="0 0 515.66 192.82">
  <g id="Confirm">
    <g>
      <g>
        <g>
          <path d="M3.53,190.32l26.5-75.03L3.53,40.25h74.59c15,0,27.21,18.85,27.21,42.02v66.04c0,23.17-12.21,42.02-27.21,42.02H3.53Z" fill="none" stroke="#808285" stroke-width="3"/>
          <path d="M78.12,42.75c6.21,0,12.19,3.84,16.85,10.81,5.07,7.6,7.86,17.79,7.86,28.7v66.04c0,10.91-2.79,21.11-7.86,28.7-4.65,6.97-10.64,10.81-16.85,10.81H7.07l25.03-70.87.59-1.67-.59-1.67L7.07,42.75h71.05M78.12,37.75H0l27.38,77.53L0,192.82h78.12c16.41,0,29.71-19.93,29.71-44.52v-66.04c0-24.59-13.3-44.52-29.71-44.52h0Z" fill="none" stroke="#808285" stroke-width="3"/>
        </g>
        <g>
          <path d="M437.54,190.32c-15,0-27.21-18.85-27.21-42.02v-66.04c0-23.17,12.21-42.02,27.21-42.02h74.59l-26.5,75.03,26.5,75.03h-74.59Z" fill="none" stroke="#808285" stroke-width="3"/>
          <path d="M508.59,42.75l-25.03,70.87-.59,1.67.59,1.67,25.03,70.87h-71.05c-6.21,0-12.19-3.84-16.85-10.81-5.07-7.6-7.86-17.79-7.86-28.7v-66.04c0-10.91,2.79-21.11,7.86-28.7,4.65-6.97,10.64-10.81,16.85-10.81h71.05M515.66,37.75h-78.12c-16.41,0-29.71,19.93-29.71,44.52v66.04c0,24.59,13.3,44.52,29.71,44.52h78.12l-27.38-77.53,27.38-77.53h0Z" fill="none" stroke="#808285" stroke-width="3"/>
        </g>
        <g>
          <rect x="50.33" y="2.5" width="415" height="159.82" rx="9.5" ry="9.5" fill="none" stroke="#808285" stroke-width="3"/>
          <path d="M455.83,5c3.86,0,7,3.14,7,7v140.82c0,3.86-3.14,7-7,7H59.83c-3.86,0-7-3.14-7-7V12c0-3.86,3.14-7,7-7h396M455.83,0H59.83c-6.63,0-12,5.37-12,12v140.82c0,6.63,5.37,12,12,12h396c6.63,0,12-5.37,12-12V12c0-6.63-5.37-12-12-12h0Z" fill="none" stroke="#808285" stroke-width="3"/>
        </g>
      </g>
      <g>
        <g>
          <path d="M3.53,190.32l26.5-75.03L3.53,40.25h74.59c15,0,27.21,18.85,27.21,42.02v66.04c0,23.17-12.21,42.02-27.21,42.02H3.53Z" fill="#fff"/>
          <path d="M78.12,42.75c6.21,0,12.19,3.84,16.85,10.81,5.07,7.6,7.86,17.79,7.86,28.7v66.04c0,10.91-2.79,21.11-7.86,28.7-4.65,6.97-10.64,10.81-16.85,10.81H7.07l25.03-70.87.59-1.67-.59-1.67L7.07,42.75h71.05M78.12,37.75H0l27.38,77.53L0,192.82h78.12c16.41,0,29.71-19.93,29.71-44.52v-66.04c0-24.59-13.3-44.52-29.71-44.52h0Z" fill="#bcbec0"/>
        </g>
        <g>
          <path d="M437.54,190.32c-15,0-27.21-18.85-27.21-42.02v-66.04c0-23.17,12.21-42.02,27.21-42.02h74.59l-26.5,75.03,26.5,75.03h-74.59Z" fill="#fff"/>
          <path d="M508.59,42.75l-25.03,70.87-.59,1.67.59,1.67,25.03,70.87h-71.05c-6.21,0-12.19-3.84-16.85-10.81-5.07-7.6-7.86-17.79-7.86-28.7v-66.04c0-10.91,2.79-21.11,7.86-28.7,4.65-6.97,10.64-10.81,16.85-10.81h71.05M515.66,37.75h-78.12c-16.41,0-29.71,19.93-29.71,44.52v66.04c0,24.59,13.3,44.52,29.71,44.52h78.12l-27.38-77.53,27.38-77.53h0Z" fill="#bcbec0"/>
        </g>
        <g isolation="isolate">
          <rect x="50.33" y="2.5" width="415" height="159.82" rx="9.5" ry="9.5" fill="#fff"/>
          <path d="M455.83,5c3.86,0,7,3.14,7,7v140.82c0,3.86-3.14,7-7,7H59.83c-3.86,0-7-3.14-7-7V12c0-3.86,3.14-7,7-7h396M455.83,0H59.83c-6.63,0-12,5.37-12,12v140.82c0,6.63,5.37,12,12,12h396c6.63,0,12-5.37,12-12V12c0-6.63-5.37-12-12-12h0Z" fill="#bcbec0"/>
        </g>
      </g>
    </g>
  </g>
</svg>