<?xml version="1.0" encoding="UTF-8"?>
<svg id="Layer_20" data-name="Layer 20" xmlns="http://www.w3.org/2000/svg" viewBox="0 0 64 64">
  <path d="M16.17,17.25c0,11.66,7.09,21.11,15.83,21.11s15.83-9.45,15.83-21.11c0-2.01-.22-3.95-.62-5.79h-30.43c-.39,1.84-.62,3.78-.62,5.79Z" fill="#fff"/>
  <path d="M29.6,33.66c.17,2.65.26,5.6.26,8.72,0,4.94-.23,9.47-.62,13.03v2.85h2.77v-24.6h-2.4Z" fill="#fff"/>
  <path d="M34.4,33.66c-.17,2.65-.26,5.6-.26,8.72,0,4.94.23,9.47.62,13.03v2.85h-2.77v-24.6h2.4Z" fill="#fff"/>
  <path d="M29.67,49.81c-1.23,2.45-4.14,4.2-7.57,4.32-.18,0-.32.15-.32.33v3.46c0,.18.15.33.33.33h7.85c.18,0,.33-.15.33-.33v-7.95c0-.35-.47-.47-.63-.15Z" fill="#fff"/>
  <path d="M34.35,49.81c1.23,2.45,4.14,4.2,7.57,4.32.18,0,.32.15.32.33v3.46c0,.18-.15.33-.33.33h-7.85c-.18,0-.33-.15-.33-.33v-7.95c0-.35.47-.47.63-.15Z" fill="#fff"/>
  <path d="M25.04,21.77c1.7,5.3-.29,9.59-4.44,9.59s-8.89-4.29-10.59-9.59.29-9.59,4.44-9.59,8.89,4.29,10.59,9.59Z" fill="none" stroke="#fff" stroke-miterlimit="10" stroke-width="3"/>
  <path d="M38.59,21.77c-1.7,5.3.29,9.59,4.44,9.59s8.89-4.29,10.59-9.59-.29-9.59-4.44-9.59-8.89,4.29-10.59,9.59Z" fill="none" stroke="#fff" stroke-miterlimit="10" stroke-width="3"/>
</svg>