<?xml version="1.0" encoding="UTF-8"?>
<svg id="Icons" xmlns="http://www.w3.org/2000/svg" viewBox="0 0 64 64">
  <g id="Layer_17_copy" data-name="Layer 17 copy">
    <g>
      <polygon points="6.91 26.22 6.91 40.47 20.48 30.53 6.91 26.22" fill="#fff"/>
      <path d="M57.09,22.17v-1.34c0-1.66-1.34-3-3-3H9.91c-1.66,0-3,1.34-3,3v1.22l25.28,8.02,24.89-7.9Z" fill="#fff"/>
      <polygon points="57.09 40.55 57.09 26.34 43.57 30.63 57.09 40.55" fill="#fff"/>
      <path d="M32.19,34.24l-7.02-2.23-17.65,12.94c.55.73,1.41,1.21,2.4,1.21h44.17c.96,0,1.81-.46,2.36-1.17l-17.57-12.88-6.68,2.12Z" fill="#fff"/>
    </g>
  </g>
</svg>