<?xml version="1.0" encoding="UTF-8"?>
<svg id="Layer_2" data-name="Layer 2" xmlns="http://www.w3.org/2000/svg" viewBox="0 0 35.99 39.04">
  <g id="Layer_1-2" data-name="Layer 1">
    <g>
      <path d="M5.01,38.54c-2.49,0-4.51-2.02-4.51-4.51V5.01C.5,2.52,2.52.5,5.01.5c.76,0,1.5.19,2.19.58l25.99,14.51c1.44.81,2.31,2.27,2.31,3.93s-.86,3.12-2.31,3.93l-25.99,14.51c-.69.38-1.42.58-2.19.58h0Z" fill="#fff"/>
      <path d="M5.01,1c.68,0,1.33.17,1.94.51l25.99,14.51c1.28.72,2.05,2.02,2.05,3.49,0,1.47-.77,2.78-2.05,3.49l-25.99,14.51c-.61.34-1.27.51-1.94.51-1.93,0-4.01-1.53-4.01-4.01V5.01C1,2.53,3.08,1,5.01,1M5.01,0C2.39,0,0,2.09,0,5.01v29.03c0,2.91,2.39,5.01,5.01,5.01.81,0,1.64-.2,2.43-.64l25.99-14.51c3.42-1.91,3.42-6.82,0-8.73L7.44.64c-.79-.44-1.62-.64-2.43-.64h0Z" fill="#6d6e71"/>
    </g>
  </g>
</svg>