<?xml version="1.0" encoding="UTF-8"?>
<svg id="Layer_2" data-name="Layer 2" xmlns="http://www.w3.org/2000/svg" viewBox="0 0 192 48">
  <g id="Layer_1-2" data-name="Layer 1">
    <g>
      <rect x="2.5" y="2.5" width="187" height="43" rx="9.5" ry="9.5" fill="#fff"/>
      <path d="M180,5c3.86,0,7,3.14,7,7v24c0,3.86-3.14,7-7,7H12c-3.86,0-7-3.14-7-7V12c0-3.86,3.14-7,7-7h129.68s38.32,0,38.32,0M180,0H12C5.37,0,0,5.37,0,12v24c0,6.63,5.37,12,12,12h168c6.63,0,12-5.37,12-12V12c0-6.63-5.37-12-12-12h0Z" fill="#bcbec0"/>
      <path d="M180,1c6.07,0,11,4.93,11,11v24c0,6.07-4.93,11-11,11H12c-6.07,0-11-4.93-11-11V12c0-6.07,4.93-11,11-11h129.68s38.32,0,38.32,0M180,0H12C5.37,0,0,5.37,0,12v24c0,6.63,5.37,12,12,12h168c6.63,0,12-5.37,12-12V12c0-6.63-5.37-12-12-12h0Z" fill="#6d6e71"/>
    </g>
    <line x1="142.57" y1="48" x2="142.57" y2="0" fill="none" stroke="#6d6e71" stroke-miterlimit="10"/>
  </g>
</svg>