<?xml version="1.0" encoding="UTF-8"?>
<svg id="Layer_2" data-name="Layer 2" xmlns="http://www.w3.org/2000/svg" viewBox="0 0 114 58">
  <g id="Layer_4" data-name="Layer 4">
    <g>
      <path d="M85,6c12.68,0,23,10.32,23,23s-10.32,23-23,23H29c-12.68,0-23-10.32-23-23S16.32,6,29,6h56M85,0H29C12.98,0,0,12.98,0,29s12.98,29,29,29h56c16.02,0,29-12.98,29-29S101.02,0,85,0h0Z" fill="#bbbdbf"/>
      <path d="M85,1c15.44,0,28,12.56,28,28s-12.56,28-28,28H29c-15.44,0-28-12.56-28-28S13.56,1,29,1h56M85,0H29C12.98,0,0,12.98,0,29s12.98,29,29,29h56c16.02,0,29-12.98,29-29S101.02,0,85,0h0Z" fill="#6d6e70"/>
    </g>
  </g>
</svg>