<?xml version="1.0" encoding="UTF-8"?>
<svg id="Layer_2" data-name="Layer 2" xmlns="http://www.w3.org/2000/svg" viewBox="0 0 64 64">
  <g id="Layer_1-2" data-name="Layer 1">
    <g>
      <rect x="2.5" y="2.5" width="59" height="59" rx="9.5" ry="9.5" fill="#fff"/>
      <path d="M52,5c3.86,0,7,3.14,7,7v40c0,3.86-3.14,7-7,7H12c-3.86,0-7-3.14-7-7V12c0-3.86,3.14-7,7-7h40M52,0H12C5.37,0,0,5.37,0,12v40c0,6.63,5.37,12,12,12h40c6.63,0,12-5.37,12-12V12c0-6.63-5.37-12-12-12h0Z" fill="#bcbec0"/>
      <path d="M52,4c4.41,0,8,3.59,8,8v40c0,4.41-3.59,8-8,8H12c-4.41,0-8-3.59-8-8V12c0-4.41,3.59-8,8-8h40M52,0H12C5.37,0,0,5.37,0,12v40c0,6.63,5.37,12,12,12h40c6.63,0,12-5.37,12-12V12c0-6.63-5.37-12-12-12h0Z" fill="#fff"/>
      <path d="M52,1c6.07,0,11,4.93,11,11v40c0,6.07-4.93,11-11,11H12c-6.07,0-11-4.93-11-11V12C1,5.93,5.93,1,12,1h40M52,0H12C5.37,0,0,5.37,0,12v40c0,6.63,5.37,12,12,12h40c6.63,0,12-5.37,12-12V12c0-6.63-5.37-12-12-12h0Z" fill="#6d6e71"/>
    </g>
  </g>
</svg>