<?xml version="1.0" encoding="UTF-8"?>
<svg id="Layer_2" data-name="Layer 2" xmlns="http://www.w3.org/2000/svg" viewBox="0 0 515.66 128.68">
  <g id="Confirm">
    <g>
      <g>
        <g>
          <path d="M4.15,126.18l26.06-49.25L4.15,27.69h73.97c15,0,27.21,12.21,27.21,27.21v44.07c0,15-12.21,27.21-27.21,27.21H4.15Z" fill="none" stroke="#808285" stroke-width="3"/>
          <path d="M78.12,30.19c13.62,0,24.71,11.08,24.71,24.71v44.07c0,13.62-11.08,24.71-24.71,24.71H8.3l23.5-44.41,1.24-2.34-1.24-2.34L8.3,30.19h69.82M78.12,25.19H0l27.38,51.74L0,128.68h78.12c16.41,0,29.71-13.3,29.71-29.71v-44.07c0-16.41-13.3-29.71-29.71-29.71h0Z" fill="none" stroke="#808285" stroke-width="3"/>
        </g>
        <g>
          <path d="M437.54,126.18c-15,0-27.21-12.21-27.21-27.21v-44.07c0-15,12.21-27.21,27.21-27.21h73.97l-26.06,49.24,26.06,49.25h-73.97Z" fill="none" stroke="#808285" stroke-width="3"/>
          <path d="M507.36,30.19l-23.5,44.41-1.24,2.34,1.24,2.34,23.5,44.41h-69.82c-13.62,0-24.71-11.08-24.71-24.71v-44.07c0-13.62,11.08-24.71,24.71-24.71h69.82M515.66,25.19h-78.12c-16.41,0-29.71,13.3-29.71,29.71v44.07c0,16.41,13.3,29.71,29.71,29.71h78.12l-27.38-51.74,27.38-51.74h0Z" fill="none" stroke="#808285" stroke-width="3"/>
        </g>
        <g>
          <rect x="50.33" y="2.5" width="415" height="105" rx="9.5" ry="9.5" fill="none" stroke="#808285" stroke-width="3"/>
          <path d="M455.83,5c3.86,0,7,3.14,7,7v86c0,3.86-3.14,7-7,7H59.83c-3.86,0-7-3.14-7-7V12c0-3.86,3.14-7,7-7h396M455.83,0H59.83c-6.63,0-12,5.37-12,12v86c0,6.63,5.37,12,12,12h396c6.63,0,12-5.37,12-12V12c0-6.63-5.37-12-12-12h0Z" fill="none" stroke="#808285" stroke-width="3"/>
        </g>
      </g>
      <g>
        <g>
          <path d="M4.15,126.18l26.06-49.25L4.15,27.69h73.97c15,0,27.21,12.21,27.21,27.21v44.07c0,15-12.21,27.21-27.21,27.21H4.15Z" fill="#fff"/>
          <path d="M78.12,30.19c13.62,0,24.71,11.08,24.71,24.71v44.07c0,13.62-11.08,24.71-24.71,24.71H8.3l23.5-44.41,1.24-2.34-1.24-2.34L8.3,30.19h69.82M78.12,25.19H0l27.38,51.74L0,128.68h78.12c16.41,0,29.71-13.3,29.71-29.71v-44.07c0-16.41-13.3-29.71-29.71-29.71h0Z" fill="#bcbec0"/>
        </g>
        <g>
          <path d="M437.54,126.18c-15,0-27.21-12.21-27.21-27.21v-44.07c0-15,12.21-27.21,27.21-27.21h73.97l-26.06,49.24,26.06,49.25h-73.97Z" fill="#fff"/>
          <path d="M507.36,30.19l-23.5,44.41-1.24,2.34,1.24,2.34,23.5,44.41h-69.82c-13.62,0-24.71-11.08-24.71-24.71v-44.07c0-13.62,11.08-24.71,24.71-24.71h69.82M515.66,25.19h-78.12c-16.41,0-29.71,13.3-29.71,29.71v44.07c0,16.41,13.3,29.71,29.71,29.71h78.12l-27.38-51.74,27.38-51.74h0Z" fill="#bcbec0"/>
        </g>
        <g isolation="isolate">
          <rect x="50.33" y="2.5" width="415" height="105" rx="9.5" ry="9.5" fill="#fff"/>
          <path d="M455.83,5c3.86,0,7,3.14,7,7v86c0,3.86-3.14,7-7,7H59.83c-3.86,0-7-3.14-7-7V12c0-3.86,3.14-7,7-7h396M455.83,0H59.83c-6.63,0-12,5.37-12,12v86c0,6.63,5.37,12,12,12h396c6.63,0,12-5.37,12-12V12c0-6.63-5.37-12-12-12h0Z" fill="#bcbec0"/>
        </g>
      </g>
    </g>
  </g>
</svg>