<?xml version="1.0" encoding="UTF-8"?>
<svg id="Layer_22" data-name="Layer 22" xmlns="http://www.w3.org/2000/svg" viewBox="0 0 64 64">
  <path d="M56.39,22.37c-.03,3.58-.8,7.04-2.78,9.91-.87,1.24-1.8,2.52-2.78,3.82-5.46,7.29-12.98,15.03-18.82,19.53-5.84-4.5-13.36-12.24-18.82-19.53-.99-1.3-1.92-2.58-2.79-3.82-3.6-5.56-4.11-14.24.59-20.07,2.46-2.79,5.9-3.85,9.07-3.84,3.18.04,6.19.93,8.64,3.19,1.06.99,2.17,2.05,3.31,3.17,1.14-1.12,2.24-2.18,3.3-3.17,4.7-4.12,12.51-4.68,17.71.66,2.48,2.79,3.37,6.6,3.37,10.16Z" fill="#fff"/>
</svg>