<?xml version="1.0" encoding="UTF-8"?>
<svg id="Layer_2" data-name="Layer 2" xmlns="http://www.w3.org/2000/svg" viewBox="0 0 55.48 50.91">
  <g id="Layer_1-2" data-name="Layer 1">
    <g>
      <path d="M6.01,48.42c-1.27,0-2.37-.63-3.02-1.73-.65-1.1-.66-2.37-.04-3.48L24.68,4.29c.63-1.12,1.77-1.79,3.06-1.79s2.43.67,3.06,1.79l21.73,38.92c.62,1.11.61,2.38-.04,3.48s-1.75,1.73-3.02,1.73H6.01Z" fill="#fff"/>
      <path d="M27.74,5c.39,0,.68.17.87.51l21.73,38.91c.19.33.18.67-.01.99s-.48.49-.86.49H6.01c-.38,0-.67-.17-.86-.49s-.2-.66-.01-.99L26.87,5.51c.19-.34.48-.51.87-.51M27.74,0c-2.05,0-4.09,1.02-5.24,3.07L.77,41.99c-2.23,4,.66,8.93,5.24,8.93h43.46c4.58,0,7.47-4.93,5.24-8.93L32.98,3.07c-1.14-2.05-3.19-3.07-5.24-3.07h0Z" fill="#808285"/>
      <path d="M27.74,4c.35,0,1.23.1,1.75,1.02l21.73,38.91c.5.9.15,1.69-.02,1.99-.17.3-.69.99-1.72.99H6.01c-1.03,0-1.55-.69-1.72-.99-.17-.3-.53-1.09-.02-1.99L25.99,5.02c.52-.92,1.39-1.02,1.75-1.02M27.74,0c-2.05,0-4.09,1.02-5.24,3.07L.77,41.99c-2.23,4,.66,8.93,5.24,8.93h43.46c4.58,0,7.47-4.93,5.24-8.93L32.98,3.07c-1.14-2.05-3.19-3.07-5.24-3.07h0Z" fill="#fff"/>
      <path d="M27.74,2c1.47,0,2.78.77,3.49,2.05l21.73,38.91c.7,1.25.68,2.74-.04,3.98-.73,1.24-2.02,1.98-3.45,1.98H6.01c-1.43,0-2.72-.74-3.45-1.98-.73-1.24-.74-2.72-.04-3.97L24.25,4.05c.72-1.28,2.02-2.05,3.49-2.05M27.74,0c-2.05,0-4.09,1.02-5.24,3.07L.77,41.99c-2.23,4,.66,8.93,5.24,8.93h43.46c4.58,0,7.47-4.93,5.24-8.93L32.98,3.07c-1.14-2.05-3.19-3.07-5.24-3.07h0Z" fill="#808285"/>
    </g>
  </g>
</svg>