<?xml version="1.0" encoding="UTF-8"?>
<svg id="Layer_2" data-name="Layer 2" xmlns="http://www.w3.org/2000/svg" viewBox="0 0 111.32 55.49">
  <g id="Layer_4" data-name="Layer 4">
    <g>
      <path d="M27.74,52.99c-13.92,0-25.24-11.32-25.24-25.24S13.82,2.5,27.74,2.5h55.83c13.92,0,25.24,11.33,25.24,25.25s-11.32,25.24-25.24,25.24H27.74Z" fill="#fff"/>
      <path d="M83.57,5c12.54,0,22.74,10.2,22.74,22.74s-10.2,22.74-22.74,22.74H27.74c-12.54,0-22.74-10.2-22.74-22.74S15.2,5,27.74,5h55.83M83.57,0H27.74C12.42,0,0,12.42,0,27.74h0c0,15.32,12.42,27.74,27.74,27.74h55.83c15.32,0,27.74-12.42,27.74-27.74h0c0-15.32-12.42-27.74-27.74-27.74h0Z" fill="#bcbec0"/>
      <path d="M83.57,1c14.75,0,26.74,12,26.74,26.74s-12,26.74-26.74,26.74H27.74c-14.75,0-26.74-12-26.74-26.74S13,1,27.74,1h55.83M83.57,0H27.74C12.42,0,0,12.42,0,27.74h0c0,15.32,12.42,27.74,27.74,27.74h55.83c15.32,0,27.74-12.42,27.74-27.74h0c0-15.32-12.42-27.74-27.74-27.74h0Z" fill="#6d6e71"/>
    </g>
    <circle cx="27.91" cy="27.74" r="20" fill="#bcbec0"/>
  </g>
</svg>