<?xml version="1.0" encoding="UTF-8"?>
<svg id="Icons" xmlns="http://www.w3.org/2000/svg" viewBox="0 0 64 64">
  <g id="Layer_17_copy" data-name="Layer 17 copy">
    <path d="M33.89,41.95h-3.79l-.67-15.87v-15.26h5.13v15.26l-.67,15.87ZM34.56,51.35v-1.4c0-.85-.16-1.44-.49-1.77-.33-.28-.98-.43-1.95-.43h-.24c-.98,0-1.61.14-1.89.43-.29.24-.45.45-.49.61-.04.16-.06.55-.06,1.16v1.4c0,.85.16,1.45.49,1.77.33.29.98.43,1.95.43h.31c.94,0,1.55-.14,1.83-.43.28-.24.45-.45.49-.61.04-.16.06-.55.06-1.16Z" fill="#fff" stroke="#fff" stroke-miterlimit="10" stroke-width="4"/>
  </g>
</svg>